<?xml version="1.0" encoding="utf-8"?>
<!-- Generator: Adobe Illustrator 21.0.0, SVG Export Plug-In . SVG Version: 6.00 Build 0)  -->
<svg version="1.1" id="Layer_1" xmlns="http://www.w3.org/2000/svg" xmlns:xlink="http://www.w3.org/1999/xlink" x="0px" y="0px"
	 viewBox="0 0 40 40" style="enable-background:new 0 0 40 40;" xml:space="preserve">
<style type="text/css">
	.st0{fill:#211D1D;}
</style>
<path class="st0" d="M22.4,20L39.5,2.9c0.7-0.7,0.7-1.7,0-2.4l0,0c-0.7-0.7-1.7-0.7-2.4,0L20,17.6L2.9,0.5c-0.7-0.7-1.7-0.7-2.4,0
	l0,0c-0.7,0.7-0.7,1.7,0,2.4L17.6,20L0.5,37.1c-0.7,0.7-0.7,1.7,0,2.4l0,0c0.7,0.7,1.7,0.7,2.4,0L20,22.4l17.1,17.1
	c0.7,0.7,1.7,0.7,2.4,0l0,0c0.7-0.7,0.7-1.7,0-2.4L22.4,20z"/>
</svg>
